<?xml version="1.0" encoding="UTF-8"?>
<svg width="232px" height="172px" viewBox="0 0 232 172" version="1.1" xmlns="http://www.w3.org/2000/svg" xmlns:xlink="http://www.w3.org/1999/xlink">
    <!-- Generator: Sketch 52.6 (67491) - http://www.bohemiancoding.com/sketch -->
    <title>Illustration</title>
    <desc>Created with Sketch.</desc>
    <g id="Error" stroke="none" stroke-width="1" fill="none" fill-rule="evenodd">
        <g id="Error-" transform="translate(-604.000000, -263.000000)">
            <g id="Illustration" transform="translate(604.000000, 263.000000)">
                <path d="M2.70315789,81.9241626 C6.36,96.0611453 14.0947368,108.281749 26.3178947,114.205677 C51.7284211,126.516835 109.035789,120.167512 151.806316,112.878953 C173.930526,109.109372 193.376842,98.70617 207.503158,84.0658744 L2.70315789,81.9241626 Z" id="Path" fill="#3359DB" opacity="0.1"></path>
                <path d="M226.989474,15.3794704 L203.522105,15.3794704 C202.408421,15.3794704 201.494737,14.5539532 201.494737,13.5452217 C201.494737,12.5364901 202.408421,11.708867 203.522105,11.708867 L207.581053,11.708867 C206.465263,11.708867 205.553684,10.8833498 205.553684,9.87251232 C205.553684,8.86167488 206.465263,8.03826355 207.581053,8.03826355 L204.684211,8.03826355 C203.568421,8.03826355 202.654737,7.21274631 202.654737,6.20190887 C202.654737,5.19107143 203.568421,4.3676601 204.684211,4.3676601 L216.932632,4.3676601 C214.214737,3.22415025 211.037895,2.41126847 207.376842,1.98376847 C173.976842,-1.89742611 162.052632,0.669679803 157.846316,3.3083867 C152.60335,6.63835016 146.779388,8.94893308 140.68,10.1189039 C120.073684,13.9664039 81.5368421,18.595197 46.6084211,8.64476601 C29.2484211,3.68955665 16.3452632,12.0521305 8.61263158,26.03117 L231.065263,26.03117 C230.774737,21.968867 229.905263,18.216133 228.309474,14.9330172 C227.931547,15.2249001 227.46693,15.3820438 226.989474,15.3794704 Z" id="Path" fill="#3359DB" opacity="0.1"></path>
                <path d="M0.713684211,52.416133 C-0.187693129,60.6379666 0.118711704,68.9474996 1.62315789,77.0805665 L207.661053,83.9016133 C213.332712,78.0174218 218.151553,71.366791 221.976842,64.1439532 L0.713684211,52.416133 Z M82.2042105,70.0110222 L78.1473684,70.0110222 C79.2631579,70.0110222 80.1768421,70.8386453 80.1768421,71.8473768 C80.1768421,72.8561084 79.2631579,73.6816256 78.1473684,73.6816256 L54.68,73.6816256 C53.5663158,73.6816256 52.6526316,72.8561084 52.6526316,71.8473768 C52.6526316,70.8386453 53.5663158,70.0110222 54.68,70.0110222 L58.7389474,70.0110222 C57.6231579,70.0110222 56.7115789,69.1855049 56.7115789,68.1767734 C56.7115789,67.1680419 57.6231579,66.3404187 58.7389474,66.3404187 L55.84,66.3404187 C54.7242105,66.3404187 53.8105263,65.5149015 53.8105263,64.50617 C53.8105263,63.4974384 54.7242105,62.6698153 55.84,62.6698153 L79.3073684,62.6698153 C80.4231579,62.6698153 81.3347368,63.4953325 81.3347368,64.50617 C81.3347368,65.5170074 80.4231579,66.3404187 79.3073684,66.3404187 L82.2042105,66.3404187 C83.32,66.3404187 84.2315789,67.165936 84.2315789,68.1767734 C84.2315789,69.1876108 83.32,70.0110222 82.2042105,70.0110222 Z" id="Shape" fill="#3359DB" fill-rule="nonzero" opacity="0.1"></path>
                <path d="M231.073684,26.1575246 L6.13052632,31.1064163 C3.39368421,37.4725862 1.57894737,44.6705911 0.743157895,52.1297291 L227.132632,52.1297291 C228.605967,47.7656856 229.699164,43.2823371 230.4,38.7298153 C231.075789,34.3474138 231.345263,30.1082143 231.073684,26.1575246 Z M46.4147368,42.3835714 L42.3578947,42.3835714 C43.4736842,42.3835714 44.3873684,43.2111946 44.3873684,44.2199261 C44.3873684,45.2286576 43.4736842,46.0562808 42.3578947,46.0562808 L18.8905263,46.0562808 C17.7768421,46.0562808 16.8631579,45.2286576 16.8631579,44.2199261 C16.8631579,43.2111946 17.7768421,42.3835714 18.8905263,42.3835714 L22.9494737,42.3835714 C21.8336842,42.3835714 20.9221053,41.5580542 20.9221053,40.5493227 C20.9221053,39.5405911 21.8336842,38.712968 22.9494737,38.712968 L20.0505263,38.712968 C18.9347368,38.712968 18.0210526,37.8874507 18.0210526,36.8787192 C18.0210526,35.8699877 18.9347368,35.0423645 20.0505263,35.0423645 L43.5178947,35.0423645 C44.6336842,35.0423645 45.5452632,35.8678818 45.5452632,36.8787192 C45.5452632,37.8895567 44.6336842,38.712968 43.5178947,38.712968 L46.4147368,38.712968 C47.5305263,38.712968 48.4421053,39.5405911 48.4421053,40.5493227 C48.4421053,41.5580542 47.5305263,42.3835714 46.4147368,42.3835714 Z" id="Shape" fill="#3359DB" fill-rule="nonzero" opacity="0.1"></path>
                <ellipse id="Oval" fill="#3359DB" opacity="0.1" cx="114.964211" cy="155.829015" rx="94.1010526" ry="8.65950739"></ellipse>
                <g id="Group" opacity="0.1" transform="translate(178.000000, 56.649015)" fill="#000000">
                    <path d="M0.0484210526,3.19256158 C0.0918399215,3.11019859 0.129816037,3.02507777 0.162105263,2.93774631 C0.4,2.27649015 0.294736842,1.54995074 0.296842105,0.846576355 C0.296727875,0.611995134 0.318577676,0.37791877 0.362105263,0.147413793 C0.167800643,0.563516981 0.0733613063,1.01927299 0.0863157895,1.47834975 C0.0842105263,2.0448399 0.151578947,2.6387069 0.0484210526,3.19256158 Z" id="Path"></path>
                </g>
                <path d="M180.147368,159.617549 C179.534737,159.640714 176.052632,159.617549 176.052632,159.617549 C176.001675,159.564226 175.953875,159.507973 175.909474,159.449076 C176.8,159.145825 178.724211,158.690948 180.147368,159.617549 Z" id="Path" fill="#000000" opacity="0.1"></path>
                <path d="M190.107368,159.617549 C189.494737,159.640714 186.012632,159.617549 186.012632,159.617549 C185.961675,159.564226 185.913875,159.507973 185.869474,159.449076 C186.755789,159.145825 188.68,158.690948 190.107368,159.617549 Z" id="Path" fill="#000000" opacity="0.1"></path>
                <ellipse id="Oval" fill="#575A89" cx="171.231579" cy="89.2358867" rx="1.89473684" ry="1.28460591"></ellipse>
                <path d="M108.552578,170.161217 C108.278576,170.668848 108.131383,170.934654 108.131383,170.934654 C108.131383,170.934654 36.9083874,131.415817 26.2706438,94.197214 C15.6322307,56.9762687 31.8002052,19.6706385 62.3828254,10.8727568 C78.3956431,6.26625564 95.1852965,10.3884635 109.075463,20.7044523 C122.817401,10.7926972 139.292069,6.89829149 155.017532,11.4221278 C185.600153,20.2200095 201.768127,57.5256397 191.129714,94.7465849 C180.49197,131.965188 109.268974,171.484025 109.268974,171.484025 C109.268974,171.484025 109.014755,171.024944 108.552578,170.161217 Z" id="Combined-Shape" fill="#808FA3"></path>
                <path d="M143.549474,128.422685 C143.549474,138.678473 127.431579,129.298744 110.151579,129.298744 C92.8715789,129.298744 75.3936842,138.290985 75.3936842,128.035197 C75.3936842,122.187081 80.9642105,114.054052 88.9557895,108.14697 C94.9768421,103.695074 102.370526,100.506724 109.797895,100.506724 C117.435789,100.506724 124.917895,103.958313 130.886316,108.696613 C138.418947,114.671084 143.549474,122.698818 143.549474,128.422685 Z" id="Path" fill="#444053"></path>
                <path d="M130.884211,108.692401 C121.698947,107.308818 105.086316,105.621983 88.9557895,108.142759 C94.9768421,103.690862 102.370526,100.502512 109.797895,100.502512 C117.433684,100.502512 124.915789,103.954101 130.884211,108.692401 Z" id="Path" fill="#F6F8FB"></path>
                <path d="M75.3936842,49.9143103 C75.3936842,49.9143103 55.8294737,62.4255296 55.9894737,81.9957635 C56.1494737,101.565998 75.3936842,49.9143103 75.3936842,49.9143103 Z" id="Path" fill="#000000" opacity="0.05"></path>
                <path d="M174.393684,14.5792241 C174.393684,14.5792241 156.667368,13.5115271 158.757895,25.9364039 C158.757895,25.9364039 158.336842,28.1307635 160.332632,29.1289655 C160.332632,29.1289655 160.364211,28.2086823 162.149474,28.5203571 C162.785711,28.6268327 163.432275,28.6579339 164.075789,28.6130172 C164.945364,28.5538757 165.771831,28.2122429 166.429474,27.6400862 C166.429474,27.6400862 171.412632,25.5826108 173.351579,17.4348399 C173.351579,17.4348399 174.785263,15.6574507 174.728421,15.2025739 L171.736842,16.4787562 C171.736842,16.4787562 172.757895,18.6373153 171.947368,20.4315517 C171.947368,20.4315517 171.850526,16.5587808 171.275789,16.6409113 C171.16,16.6598645 169.722105,17.3885099 169.722105,17.3885099 C169.722105,17.3885099 171.48,21.1496675 170.143158,23.8810345 C170.143158,23.8810345 170.646316,19.2480296 169.162105,17.6601724 L167.056842,18.8900246 C167.056842,18.8900246 169.111579,22.7733251 167.717895,25.9427217 C167.717895,25.9427217 168.075789,21.0822783 166.614737,19.189064 L164.705263,20.6779433 C164.705263,20.6779433 166.635789,24.5064901 165.458947,27.1346675 C165.458947,27.1346675 165.305263,21.4760837 164.292632,21.0485837 C164.292632,21.0485837 162.623158,22.5227217 162.368421,23.1271182 C162.368421,23.1271182 163.690526,25.9048153 162.871579,27.3705296 C162.871579,27.3705296 162.368421,23.6009483 161.955789,23.5798892 C161.955789,23.5798892 160.292632,26.0775 160.117895,27.7917118 C160.117895,27.7917118 160.191579,25.2435591 161.551579,23.3419212 C161.551579,23.3419212 159.943158,23.6177956 159.006316,24.6623276 C159.006316,24.6623276 159.265263,22.895468 161.953684,22.7417365 C161.953684,22.7417365 163.328421,20.8464163 163.696842,20.732697 C163.696842,20.732697 161.012632,20.5073645 159.385263,21.2296921 C159.385263,21.2296921 160.816842,19.5639163 164.187368,20.3199384 L166.082105,18.7826232 C166.082105,18.7826232 162.549474,18.2982635 161.050526,18.833165 C161.050526,18.833165 162.774737,17.3590271 166.589474,18.4330419 L168.642105,17.2052956 C168.642105,17.2052956 165.629474,16.5566749 163.833684,16.7841133 C163.833684,16.7841133 165.728421,15.7627463 169.242105,16.8704557 L170.715789,16.2113054 C170.715789,16.2113054 168.507368,15.7774877 167.861053,15.7100985 C167.214737,15.6427094 167.181053,15.461601 167.181053,15.461601 C168.583522,15.2335031 170.021782,15.4004888 171.334737,15.9438547 C171.334737,15.9438547 174.446316,14.7750739 174.393684,14.5792241 Z" id="Path" fill="#3359DB"></path>
                <path d="M156.212632,9.05541872 C156.212632,9.05541872 148.212632,8.57105911 149.147368,14.1854187 C149.147368,14.1854187 148.96,15.177303 149.858947,15.627968 C149.858947,15.627968 149.871579,15.2067857 150.68,15.3541995 C150.967257,15.40149 151.258993,15.415622 151.549474,15.3963177 C151.942693,15.3682459 152.31633,15.2138704 152.614737,14.9561823 C152.614737,14.9561823 154.865263,14.0253695 155.741053,10.3442365 C155.741053,10.3442365 156.389474,9.54188424 156.372632,9.33550493 L155.021053,9.91252463 C155.021053,9.91252463 155.484211,10.8875616 155.12,11.6983374 C155.12,11.6983374 155.075789,9.94832512 154.816842,9.99044335 C154.764211,9.99044335 154.113684,10.3273892 154.113684,10.3273892 C154.113684,10.3273892 154.909474,12.0268596 154.309474,13.2609236 C154.309474,13.2609236 154.536842,11.1676478 153.867368,10.449532 L152.915789,11.0054926 C152.915789,11.0054926 153.844211,12.7618227 153.214737,14.1938424 C153.214737,14.1938424 153.374737,11.9973768 152.715789,11.1423768 L151.852632,11.8141626 C151.852632,11.8141626 152.724211,13.5431158 152.193684,14.7308498 C152.193684,14.7308498 152.124211,12.1742734 151.665263,11.9805296 C151.665263,11.9805296 150.911579,12.6459975 150.795789,12.919766 C150.795789,12.919766 151.393684,14.1833128 151.023158,14.8382512 C151.023158,14.8382512 150.795789,13.134569 150.602105,13.1282512 C150.602105,13.1282512 149.850526,14.2549138 149.772632,15.0235714 C149.808862,14.3082455 150.031689,13.6148738 150.418947,13.0124261 C149.985784,13.0944044 149.586148,13.3016057 149.269474,13.608399 C149.269474,13.608399 149.385263,12.8102586 150.604211,12.7407635 C150.604211,12.7407635 151.225263,11.8857635 151.391579,11.8331158 C151.391579,11.8331158 150.178947,11.732032 149.444211,12.0584483 C149.444211,12.0584483 150.090526,11.304532 151.614737,11.637266 L152.456842,10.9444212 C152.456842,10.9444212 150.861053,10.73383 150.183158,10.9654803 C150.183158,10.9654803 150.962105,10.3000123 152.686316,10.7864778 L153.612632,10.2305172 C153.612632,10.2305172 152.252632,9.93779557 151.44,10.0430911 C151.44,10.0430911 152.296842,9.58189655 153.884211,10.0831034 L154.547368,9.78406404 C154.547368,9.78406404 153.549474,9.58821429 153.258947,9.55873153 C152.968421,9.52924877 152.949474,9.44711823 152.949474,9.44711823 C153.581468,9.34195144 154.230253,9.41487108 154.823158,9.65770936 C154.823158,9.65770936 156.235789,9.143867 156.212632,9.05541872 Z" id="Path" fill="#3359DB"></path>
                <ellipse id="Oval" fill="#3359DB" opacity="0.1" cx="226.124211" cy="152.775443" rx="5.66947368" ry="1"></ellipse>
                <ellipse id="Oval" fill="#3359DB" opacity="0.1" cx="10.0568421" cy="168.715086" rx="5.66947368" ry="1"></ellipse>
                <ellipse id="Oval" fill="#3359DB" opacity="0.1" cx="42.9684211" cy="169.917562" rx="5.66947368" ry="1"></ellipse>
                <ellipse id="Oval" fill="#3359DB" cx="213.715789" cy="163.043867" rx="8.46526316" ry="1.4320197"></ellipse>
                <path d="M217.214737,160.7042 C217.601118,160.388744 217.882957,159.963653 218.023158,159.484877 C218.126316,159.002623 217.92,158.421392 217.458947,158.244495 C216.941053,158.046539 216.387368,158.40665 215.968421,158.768867 C215.549474,159.131084 215.067368,159.543842 214.517895,159.46803 C215.092728,158.947365 215.351756,158.162843 215.2,157.402131 C215.176044,157.247191 215.110566,157.10164 215.010526,156.980948 C214.722105,156.673485 214.202105,156.804052 213.856842,157.046232 C212.762105,157.816995 212.456842,159.303768 212.450526,160.643128 C212.341053,160.160874 212.433684,159.657562 212.431579,159.16899 C212.429474,158.680419 212.292632,158.116034 211.875789,157.857007 C211.617105,157.718808 211.326828,157.650572 211.033684,157.659052 C210.541053,157.640099 209.993684,157.688534 209.656842,158.048645 C209.235789,158.497204 209.347368,159.246909 209.711579,159.733374 C210.075789,160.21984 210.627368,160.535727 211.134737,160.874778 C211.543059,161.117605 211.891355,161.449452 212.153684,161.845603 C212.184359,161.901367 212.209733,161.959887 212.229474,162.020394 L215.313684,162.020394 C216.00381,161.669433 216.643294,161.226686 217.214737,160.7042 Z" id="Path" fill="#3359DB"></path>
                <path d="M12.7031579,143.046133 C12.7031579,143.046133 13.8589474,144.558177 12.1684211,146.836773 C10.4778947,149.115369 9.08421053,151.048596 9.64210526,152.472192 C9.64210526,152.472192 12.1915789,148.230887 14.2736842,148.169815 C16.3557895,148.108744 14.9852632,145.596392 12.7031579,143.046133 Z" id="Path" fill="#3359DB"></path>
                <path d="M12.7031579,143.046133 C12.8035229,143.192267 12.8828931,143.351765 12.9389474,143.519963 C14.9642105,145.899643 16.0421053,148.121379 14.0968421,148.176133 C12.2821053,148.228781 10.0968421,151.471884 9.58526316,152.291084 C9.60314663,152.354583 9.62422614,152.417138 9.64842105,152.47851 C9.64842105,152.47851 12.1978947,148.237204 14.28,148.176133 C16.3621053,148.115062 14.9852632,145.596392 12.7031579,143.046133 Z" id="Path" fill="#000000" opacity="0.1"></path>
                <path d="M14.8526316,144.973042 C14.8526316,145.505837 14.7915789,145.937549 14.7178947,145.937549 C14.6442105,145.937549 14.5852632,145.516367 14.5852632,144.973042 C14.5852632,144.429717 14.6589474,144.69085 14.7347368,144.69085 C14.8105263,144.69085 14.8526316,144.440246 14.8526316,144.973042 Z" id="Path" fill="#FFD037"></path>
                <path d="M15.5810526,145.609027 C15.1136842,145.863842 14.7073684,146.017574 14.6715789,145.952291 C14.6357895,145.887007 14.9873684,145.630086 15.4547368,145.375271 C15.9221053,145.120456 15.7368421,145.305776 15.7726316,145.375271 C15.8084211,145.444766 16.0568421,145.354212 15.5810526,145.609027 Z" id="Path" fill="#FFD037"></path>
                <path d="M6.59368421,143.046133 C6.59368421,143.046133 5.43789474,144.558177 7.12631579,146.836773 C8.81473684,149.115369 10.2105263,151.048596 9.65263158,152.472192 C9.65263158,152.472192 7.10105263,148.230887 5.02105263,148.169815 C2.94105263,148.108744 4.30947368,145.596392 6.59368421,143.046133 Z" id="Path" fill="#3359DB"></path>
                <path d="M6.59368421,143.046133 C6.49239354,143.19172 6.4129548,143.351356 6.35789474,143.519963 C4.33263158,145.899643 3.25263158,148.121379 5.2,148.176133 C7.01263158,148.228781 9.2,151.471884 9.70947368,152.291084 C9.69230146,152.354551 9.67192444,152.417106 9.64842105,152.47851 C9.64842105,152.47851 7.09684211,148.237204 5.01684211,148.176133 C2.93684211,148.115062 4.30947368,145.596392 6.59368421,143.046133 Z" id="Path" fill="#000000" opacity="0.1"></path>
                <path d="M4.44421053,144.973042 C4.44421053,145.505837 4.50315789,145.937549 4.57684211,145.937549 C4.65052632,145.937549 4.70947368,145.516367 4.70947368,144.973042 C4.70947368,144.429717 4.63578947,144.69085 4.56210526,144.69085 C4.48842105,144.69085 4.44421053,144.440246 4.44421053,144.973042 Z" id="Path" fill="#FFD037"></path>
                <path d="M3.70526316,145.609027 C4.17263158,145.863842 4.58105263,146.017574 4.61684211,145.952291 C4.65263158,145.887007 4.30105263,145.630086 3.83368421,145.375271 C3.36631579,145.120456 3.54947368,145.305776 3.51578947,145.375271 C3.48210526,145.444766 3.23789474,145.354212 3.70526316,145.609027 Z" id="Path" fill="#FFD037"></path>
                <path d="M4.81263158,152.280554 C4.81263158,152.280554 8.04631579,152.181576 9.02315789,151.486626 C10,150.791675 13.9978947,149.964052 14.24,151.065443 C14.4821053,152.166835 19.0989474,156.60399 15.4484211,156.633473 C11.7978947,156.662956 6.96631579,156.062771 5.99368421,155.47101 C5.02105263,154.879249 4.81263158,152.280554 4.81263158,152.280554 Z" id="Path" fill="#A8A8A8"></path>
                <path d="M15.5094737,156.256515 C11.8589474,156.285998 7.02736842,155.685813 6.05473684,155.094052 C5.31368421,154.643387 5.01894737,153.023941 4.92,152.276342 L4.81263158,152.276342 C4.81263158,152.276342 5.02315789,154.885567 5.98947368,155.477328 C6.95578947,156.069089 11.7936842,156.669273 15.4442105,156.639791 C16.4968421,156.639791 16.8610526,156.254409 16.8421053,155.700554 C16.6947368,156.039606 16.2947368,156.250197 15.5094737,156.256515 Z" id="Path" fill="#000000" opacity="0.2"></path>
                <path d="M86.3810526,87.25633 C87.6168421,87.186835 93.4336842,86.7488054 97.1284211,84.6407882 C97.7218085,84.2915815 98.3921179,84.0941157 99.08,84.0658744 C100.254737,84.0321798 101.606316,84.5228571 100.741053,87.2689655 C99.3389474,91.7608744 91.1978947,96.8150616 86.1452632,96.5349754 C81.2863158,96.2654187 75.5221053,94.3069212 71.7157895,87.4205911 C71.3510967,86.758068 71.1714755,86.009537 71.1957895,85.2536084 C71.24,83.8637069 71.7452632,82.1221182 74.3536842,84.0637685 C77.8778947,86.6856281 84.5642105,87.1826232 85.9052632,87.25633 C86.0637459,87.2648283 86.2225699,87.2648283 86.3810526,87.25633 Z" id="Path" fill="#444053"></path>
                <path d="M133.117895,87.25633 C134.353684,87.186835 140.170526,86.7488054 143.865263,84.6407882 C144.458651,84.2915815 145.12896,84.0941157 145.816842,84.0658744 C146.991579,84.0321798 148.343158,84.5228571 147.477895,87.2689655 C146.075789,91.7608744 137.934737,96.8150616 132.882105,96.5349754 C128.023158,96.2654187 122.258947,94.3069212 118.452632,87.4205911 C118.087939,86.758068 117.908318,86.009537 117.932632,85.2536084 C117.976842,83.8637069 118.482105,82.1221182 121.090526,84.0637685 C124.614737,86.6856281 131.301053,87.1826232 132.642105,87.25633 C132.800588,87.2648283 132.959412,87.2648283 133.117895,87.25633 Z" id="Path" fill="#444053"></path>
            </g>
        </g>
    </g>
</svg>