<svg xmlns="http://www.w3.org/2000/svg" width="16" height="16" viewBox="0 0 16 16">
    <g fill="none" fill-rule="evenodd">
        <path d="M-1-1h18v18H-1V-1zm0 0h18v18H-1V-1zm.563.563h16.875v16.875H-.438V-.438z"/>
        <path fill="#000" fill-rule="nonzero" d="M10.205 2.495h-3.54l1.77-1.77 1.77 1.77zM6.687 13.527h3.495l-1.747 1.748-1.748-1.748zM3.575 3.704L.2 12.298h1.38l.69-1.838h3.833l.69 1.837h1.38L4.804 3.702h-1.23zM2.727 9.23l1.456-3.885L5.638 9.23h-2.91zm8.07 1.875h4.59v1.192H8.99v-.967l4.44-6.42H9.02v-1.2h6.225v.945l-4.447 6.45z"/>
    </g>
</svg>
