<svg xmlns="http://www.w3.org/2000/svg" width="24" height="24" viewBox="0 0 24 24">
    <g fill="none" fill-rule="evenodd" stroke="#BCBCBC" stroke-linecap="round" stroke-linejoin="round">
        <path d="M15 8.5a3 3 0 1 1-6 0 3 3 0 0 1 6 0zM12 13.5c-2.065 0-3.944.752-5.145 1.375a2.511 2.511 0 0 0-1.355 2.23v.457c0 .518.416.938.929.938h11.142c.513 0 .929-.42.929-.938v-.457c0-.942-.525-1.799-1.355-2.23-1.201-.623-3.08-1.375-5.145-1.375z"/>
        <path d="M23.5 12c0 6.351-5.149 11.5-11.5 11.5S.5 18.351.5 12 5.649.5 12 .5 23.5 5.649 23.5 12z"/>
    </g>
</svg>
