<svg xmlns="http://www.w3.org/2000/svg" width="24" height="24" viewBox="0 0 24 24">
    <path fill="#0459E4" fill-rule="evenodd" d="M19 17.563c0 .792-.641 1.437-1.429 1.437H6.429A1.435 1.435 0 0 1 5 17.562v-.457c0-1.13.623-2.154 1.625-2.674 1.259-.652 3.214-1.43 5.375-1.43s4.116.777 5.375 1.43A3.002 3.002 0 0 1 19 17.105v.457zM12 5c1.93 0 3.5 1.57 3.5 3.5S13.93 12 12 12s-3.5-1.57-3.5-3.5S10.07 5 12 5zm0-5C5.383 0 0 5.383 0 12c0 6.616 5.383 12 12 12s12-5.384 12-12c0-6.617-5.383-12-12-12z"/>
</svg>
