<?xml version="1.0" encoding="UTF-8"?>
<svg width="42px" height="42px" viewBox="0 0 42 42" version="1.1" xmlns="http://www.w3.org/2000/svg" xmlns:xlink="http://www.w3.org/1999/xlink">
    <!-- Generator: sketchtool 52.5 (67469) - http://www.bohemiancoding.com/sketch -->
    <title>15897FC4-A273-42DF-B093-E7055FB98C5A</title>
    <desc>Created with sketchtool.</desc>
    <g id="Surveys" stroke="none" stroke-width="1" fill="none" fill-rule="evenodd">
        <g id="Survey-Dashboard" transform="translate(-408.000000, -245.000000)">
            <g id="Group" transform="translate(356.000000, 200.000000)">
                <g id="Create-Survey">
                    <g id="+">
                        <g transform="translate(52.000000, 45.000000)">
                            <circle id="Oval" stroke="#10A36D" fill-opacity="0" fill="#3359DB" cx="21" cy="21" r="20.5"></circle>
                            <path d="M22,20 L30,20 C30.5522847,20 31,20.4477153 31,21 C31,21.5522847 30.5522847,22 30,22 L22,22 L22,30 C22,30.5522847 21.5522847,31 21,31 C20.4477153,31 20,30.5522847 20,30 L20,22 L12,22 C11.4477153,22 11,21.5522847 11,21 C11,20.4477153 11.4477153,20 12,20 L20,20 L20,12 C20,11.4477153 20.4477153,11 21,11 C21.5522847,11 22,11.4477153 22,12 L22,20 Z" id="Combined-Shape" fill="#10A36D"></path>
                        </g>
                    </g>
                </g>
            </g>
        </g>
    </g>
</svg>