<?xml version="1.0" encoding="UTF-8"?>
<svg width="24px" height="24px" viewBox="0 0 24 24" version="1.1" xmlns="http://www.w3.org/2000/svg" xmlns:xlink="http://www.w3.org/1999/xlink">
    <!-- Generator: sketchtool 52.6 (67491) - http://www.bohemiancoding.com/sketch -->
    <title>02C09434-7703-49E9-87A9-EEAE3021360A</title>
    <desc>Created with sketchtool.</desc>
    <g id="Pitch-Phase" stroke="none" stroke-width="1" fill="none" fill-rule="evenodd">
        <g id="Pitch-Phase-Setup-&gt;-3" transform="translate(-532.000000, -209.000000)" fill="#3359DB">
            <path d="M544,233 C537.372583,233 532,227.627417 532,221 C532,214.372583 537.372583,209 544,209 C550.627417,209 556,214.372583 556,221 C556,227.627417 550.627417,233 544,233 Z M537.123274,220.629173 C537.11087,220.640391 537.099037,220.652224 537.087819,220.664628 C536.902593,220.869435 536.918467,221.18562 537.123274,221.370846 L543.164619,226.83459 C543.25654,226.917724 543.376062,226.963754 543.5,226.963754 C543.776142,226.963754 544,226.739897 544,226.463754 L544,215.536264 C544,215.412326 543.953969,215.292805 543.870836,215.200883 C543.68561,214.996076 543.369426,214.980202 543.164619,215.165428 L537.123274,220.629173 Z M544,219 L544,223 L550.094809,222.419542 C550.608045,222.370662 551,221.939605 551,221.424047 L551,220.576678 C551,220.061165 550.608111,219.630129 550.094926,219.581193 L544,219 Z" id="Back-Icon-Copy"></path>
        </g>
    </g>
</svg>
