<?xml version="1.0" encoding="UTF-8"?>
<svg width="18px" height="18px" viewBox="0 0 18 18" version="1.1" xmlns="http://www.w3.org/2000/svg" xmlns:xlink="http://www.w3.org/1999/xlink">
    <!-- Generator: sketchtool 48.1 (47250) - http://www.bohemiancoding.com/sketch -->
    <title>92C6CC0F-89D3-4E32-83EC-FA82332DA8E1</title>
    <desc>Created with sketchtool.</desc>
    <defs></defs>
    <g id="Learners-Profile---Holistic-Feedback-History" stroke="none" stroke-width="1" fill="none" fill-rule="evenodd" transform="translate(-335.000000, -206.000000)">
        <g id="Modal" transform="translate(255.000000, 66.000000)" fill="#3359DB" fill-rule="nonzero">
            <g id="1" transform="translate(50.000000, 124.000000)">
                <g id="chevron-down-circle" transform="translate(30.000000, 16.000000)">
                    <path d="M13.8015,8.245 L9.4944375,12.55375 C9.3594375,12.68875 9.1749375,12.728125 9,12.694375 C8.8250625,12.728125 8.6405625,12.68875 8.506125,12.55375 L4.1985,8.245 C3.979125,8.025625 3.979125,7.67125 4.1985,7.44625 C4.4184375,7.226875 4.7745,7.226875 4.9944375,7.44625 L9,11.456875 L13.0055625,7.44625 C13.2255,7.226875 13.5815625,7.226875 13.8015,7.44625 C14.020875,7.67125 14.020875,8.025625 13.8015,8.245 Z M9,0 C4.02975,0 0,4.0275 0,9 C0,13.9725 4.02975,18 9,18 C13.9708125,18 18,13.9725 18,9 C18,4.0275 13.9708125,0 9,0 Z"></path>
                </g>
            </g>
        </g>
    </g>
</svg>
