<?xml version="1.0" encoding="UTF-8"?>
<svg style="cursor:pointer;" width="19px" height="12px" viewBox="0 0 19 12" version="1.1" xmlns="http://www.w3.org/2000/svg" xmlns:xlink="http://www.w3.org/1999/xlink">
    <!-- Generator: sketchtool 52.5 (67469) - http://www.bohemiancoding.com/sketch -->
    <title>E18877F0-106C-4298-92C8-8E0BB088AAF7</title>
    <desc>Created with sketchtool.</desc>
    <g id="Surveys" stroke="none" stroke-width="1" fill="none" fill-rule="evenodd">
        <g id="Surveys-&gt;-Share-&gt;-1-Mail" transform="translate(-807.000000, -242.000000)" stroke="#3359DB" fill="#FFFFFF" stroke-width="0.6">
            <g id="Modal" transform="translate(402.000000, 103.000000)">
                <g id="Options" transform="translate(150.000000, 125.000000)">
                    <g id="Button-Copy-2" transform="translate(232.000000, 0.000000)">
                        <g id="Icon" transform="translate(24.000000, 15.000000)">
                            <path d="M16.08625,3.7 L12.68625,1.68571429 C12.187414,1.44957518 11.5923373,1.63721195 11.315761,2.11785037 C11.0391847,2.5984888 11.1729159,3.21258533 11.62375,3.53214286 L14.1029167,4.99642857 L11.62375,6.46071429 C11.1729159,6.78027181 11.0391847,7.39436835 11.315761,7.87500677 C11.5923373,8.35564519 12.187414,8.54328196 12.68625,8.30714286 L16.08625,6.29285714 C16.5436524,6.02230148 16.8246398,5.52759854 16.8246398,4.99285714 C16.8246398,4.45811575 16.5436524,3.9634128 16.08625,3.69285714 L16.08625,3.7 Z" id="Path" style="cursor:pointer;"></path>
                            <path d="M5.769375,2.06785714 C5.62680529,1.82230663 5.39323017,1.64402887 5.12016144,1.57234058 C4.84709272,1.5006523 4.55696068,1.54144207 4.31375,1.68571429 L0.91375,3.7 C0.456347587,3.97055566 0.175360191,4.46525861 0.175360191,5 C0.175360191,5.53474139 0.456347587,6.02944434 0.91375,6.3 L4.31375,8.31428571 C4.64236148,8.54721014 5.07313973,8.57335462 5.42708251,8.38185528 C5.78102528,8.19035594 5.99762124,7.81395221 5.98686779,7.40905195 C5.97611433,7.0041517 5.73984991,6.63997815 5.37625,6.46785714 L2.89708333,5.00357143 L5.37625,3.53928571 C5.62312147,3.39790563 5.80361477,3.1627753 5.87747029,2.88634131 C5.9513258,2.60990732 5.91239985,2.31516484 5.769375,2.06785714 Z" id="Path" style="cursor:pointer;"></path>
                            <path d="M9.73604167,0.175 C9.4631662,0.103336883 9.17323285,0.143994559 8.93010134,0.288017912 C8.68696982,0.432041264 8.51058316,0.667616679 8.43979167,0.942857143 L6.49895833,8.51428571 C6.40405965,8.88494877 6.51246815,9.27850884 6.7833474,9.54671567 C7.05422666,9.81492249 7.44642366,9.91702906 7.81220159,9.81457281 C8.17797952,9.71211657 8.461768,9.42066306 8.55666667,9.05 L10.4975,1.47857143 C10.6432417,0.906698501 10.302701,0.323713109 9.73604167,0.175 Z" id="Path" style="cursor:pointer;"></path>
                        </g>
                    </g>
                </g>
            </g>
        </g>
    </g>
</svg>
