<?xml version="1.0" encoding="UTF-8"?>
<svg width="90px" height="108px" viewBox="0 0 90 108" version="1.1" xmlns="http://www.w3.org/2000/svg" xmlns:xlink="http://www.w3.org/1999/xlink">
    <!-- Generator: sketchtool 52.5 (67469) - http://www.bohemiancoding.com/sketch -->
    <title>06D005B0-FCCE-4FEB-82CF-EFA32301791C</title>
    <desc>Created with sketchtool.</desc>
    <g id="Surveys" stroke="none" stroke-width="1" fill="none" fill-rule="evenodd">
        <g id="Survey-Dashboard-(Empty)" transform="translate(-826.000000, -286.000000)" fill="#E0E4E5">
            <g id="Empty-State" transform="translate(778.000000, 286.000000)">
                <g id="Empty" transform="translate(48.000000, 0.000000)">
                    <path d="M49.42,98.5192308 L8.96,98.5192308 L8.96,8.80384615 L35.84,8.80384615 C40.74,8.80384615 44.8,12.8564103 44.8,17.7474359 L44.8,31.3025641 C44.8,33.8179487 46.76,35.774359 49.28,35.774359 L71.68,35.774359 L71.68,67.2166667 C71.68,69.7320513 73.64,71.6884615 76.16,71.6884615 C78.68,71.6884615 80.64,69.7320513 80.64,67.2166667 L80.64,31.3025641 C80.64,30.1846154 80.22,29.0666667 79.38,28.0884615 L52.64,1.25769231 C51.8,0.419230769 50.68,0 49.42,0 L4.48,0 C1.96,0 0,1.95641026 0,4.47179487 L0,103.130769 C0,105.646154 1.96,107.602564 4.48,107.602564 L49.42,107.602564 C51.94,107.602564 53.9,105.646154 53.9,103.130769 C53.9,100.475641 51.94,98.5192308 49.42,98.5192308 Z M53.9,15.2320513 L65.52,26.8307692 L53.9,26.8307692 L53.9,15.2320513 Z" id="Shape" fill-rule="nonzero"></path>
                    <path d="M88.585,100.109936 L82.845,94.3804487 L88.585,88.6509615 C90.405,86.8342949 90.405,84.0394231 88.585,82.3625 C86.765,80.5458333 83.965,80.5458333 82.285,82.3625 L76.545,88.0919872 L70.805,82.3625 C68.985,80.5458333 66.185,80.5458333 64.505,82.3625 C62.685,84.1791667 62.685,86.9740385 64.505,88.6509615 L70.245,94.3804487 L64.365,100.109936 C62.545,101.926603 62.545,104.721474 64.365,106.398397 C66.185,108.215064 68.985,108.215064 70.665,106.398397 L76.405,100.66891 L82.145,106.398397 C83.965,108.215064 86.765,108.215064 88.445,106.398397 C90.405,104.721474 90.405,101.926603 88.585,100.109936 Z" id="Path"></path>
                    <path d="M40.8734453,59.5872945 C45.0380763,59.5872945 48.6899765,58.3549331 51.9511167,55.8076903 C48.6764473,52.9559454 45.0282569,51.5903065 40.8734453,51.5903065 C36.7186337,51.5903065 33.0704432,52.9559454 29.7957739,55.8076903 C33.056914,58.3549331 36.7088143,59.5872945 40.8734453,59.5872945 Z M19.9442913,53.1236815 C25.5870372,46.1901212 32.661412,42.5903065 40.8734453,42.5903065 C49.0854785,42.5903065 56.1598534,46.1901212 61.8025993,53.1236815 C63.1969858,54.8370429 63.1415241,57.3091745 61.6717016,58.9582781 C56.0064383,65.3145596 48.9804749,68.5872945 40.8734453,68.5872945 C32.7664156,68.5872945 25.7404523,65.3145596 20.075189,58.9582781 C18.6053664,57.3091745 18.5499048,54.8370429 19.9442913,53.1236815 Z" id="Path-3" fill-rule="nonzero"></path>
                </g>
            </g>
        </g>
    </g>
</svg>
