<?xml version="1.0"?>
<svg xmlns="http://www.w3.org/2000/svg" height="512px" viewBox="0 -96 512 512" width="512px"><path d="m496.515625 0h-481.03125c-8.550781 0-15.484375 6.933594-15.484375 15.484375v212.890625l85.769531-85.757812c6.050781-6.050782 15.847657-6.050782 21.894531 0l70.089844 70.089843 154.21875-153.238281c5.957032-5.914062 15.546875-6.007812 21.617188-.207031l158.410156 151.585937v-195.363281c0-8.550781-6.933594-15.484375-15.484375-15.484375zm-315.589844 139.21875c-30 0-54.402343-24.402344-54.402343-54.386719 0-30 24.402343-54.402343 54.402343-54.402343 29.984375 0 54.386719 24.402343 54.386719 54.402343 0 29.984375-24.402344 54.386719-54.386719 54.386719zm0 0" fill="#3459db"/><path d="m199.648438 234.601562 85.730468 85.730469h211.136719c8.550781 0 15.484375-6.933593 15.484375-15.484375v-51.140625l-168.910156-161.628906zm0 0" fill="#3459db"/><path d="m96.722656 175.453125-96.722656 96.722656v32.671875c0 8.550782 6.933594 15.484375 15.484375 15.484375h226.105469c-138.847656-138.847656 2.558594 2.542969-144.867188-144.878906zm0 0" fill="#3459db"/><path d="m180.925781 61.398438c-12.925781 0-23.433593 10.507812-23.433593 23.433593 0 12.914063 10.507812 23.421875 23.433593 23.421875 12.910157 0 23.421875-10.507812 23.421875-23.421875 0-12.925781-10.511718-23.433593-23.421875-23.433593zm0 0" fill="#3459db"/></svg>
