<svg xmlns="http://www.w3.org/2000/svg" width="23" height="23" viewBox="0 0 23 23">
    <g fill="#0459E4" fill-rule="evenodd">
        <path d="M16.407 13.495a.527.527 0 0 0-.57.11l-3.756 3.714c-.15.15-.325.264-.522.341l-5.227 2.09a1.58 1.58 0 0 1-1.69-.346 1.563 1.563 0 0 1-.348-1.69l2.091-5.228c.077-.195.192-.37.34-.52l9.799-9.911a.52.52 0 0 0 .136-.489C16.442.643 15.686 0 14.82 0h-1.229a.522.522 0 0 0-.522.523v.93c0 .148.062.289.172.388.225.204.35.48.35.773a1.047 1.047 0 0 1-2.09 0c0-.294.124-.569.35-.773.108-.1.172-.24.172-.389v-.93A.522.522 0 0 0 11.5 0H9.41a.522.522 0 0 0-.523.523v.93c0 .148.063.289.172.388.226.204.35.48.35.773a1.047 1.047 0 0 1-2.09 0c0-.294.124-.569.35-.773.109-.1.172-.24.172-.389v-.93A.522.522 0 0 0 7.32 0H5.228a.522.522 0 0 0-.523.523v.93c0 .148.063.289.172.388.225.204.35.48.35.773a1.047 1.047 0 0 1-2.09 0c0-.294.124-.569.35-.773.109-.1.173-.24.173-.389v-.93A.522.522 0 0 0 3.137 0h-1.23C.855 0 0 .938 0 2.091V20.91C0 22.061.856 23 1.906 23h12.915c1.05 0 1.907-.939 1.907-2.09v-6.933a.522.522 0 0 0-.321-.482"/>
        <path d="M11.647 14.807l-.202-.405a.526.526 0 0 0-.234-.233l-.397-.198 8.527-8.527.884.884-8.578 8.479zm-.963.951l-2.567 1.029-.858-.858.936-2.338h.89l.38.757c.004.01.017.012.023.023.022.039.041.08.074.112.033.034.074.052.112.075.01.006.014.018.024.023l.889.445.278.555-.18.177zM17.718 3.82l.883.885-8.526 8.526-.198-.397a.522.522 0 0 0-.468-.288h-.316l8.625-8.726zm4.669-1.116l-1.045-1.046c-.79-.79-2.164-.792-2.959.002L7.473 12.697l-.002.002-.002.001c-.007.008-.01.018-.016.026a.552.552 0 0 0-.095.144l-.002.004L5.265 18.1a.52.52 0 0 0 .116.564.52.52 0 0 0 .563.117l5.227-2.091a.553.553 0 0 0 .174-.115L22.387 5.66c.395-.395.613-.92.613-1.478 0-.558-.218-1.083-.613-1.478z"/>
    </g>
</svg>
