<svg xmlns="http://www.w3.org/2000/svg" width="23" height="23" viewBox="0 0 23 23">
    <g fill="none" fill-rule="evenodd" stroke="#BCBCBC" stroke-linecap="round" stroke-linejoin="round">
        <path d="M10.977 15.16L22.018 4.245a1.567 1.567 0 0 0 0-2.219L20.973.982a1.567 1.567 0 0 0-2.219 0L7.841 12.022 5.75 17.25l5.227-2.09zM17.773 2.09l3.136 3.137"/>
        <path d="M7.84 12.023h1.57l.522 1.045 1.045.523.523 1.045M6.273 16.205l.522.522M19.292 3.708l-9.36 9.36M4.705 3.136a.523.523 0 1 1-1.046 0 .523.523 0 0 1 1.046 0zM4.182 3.136V.523M8.886 3.136a.523.523 0 1 1-1.045 0 .523.523 0 0 1 1.045 0zM8.364 3.136V.523M13.068 3.136a.523.523 0 1 1-1.046 0 .523.523 0 0 1 1.046 0zM12.545 3.136V.523"/>
        <path d="M16.205 3.562v-1.47c0-.867-.62-1.57-1.384-1.57H1.906c-.763 0-1.383.703-1.383 1.57v18.817c0 .866.62 1.568 1.383 1.568H14.82c.764 0 1.384-.702 1.384-1.568V9.992"/>
    </g>
</svg>
