<?xml version="1.0"?>
<svg xmlns="http://www.w3.org/2000/svg" xmlns:xlink="http://www.w3.org/1999/xlink" version="1.1" id="Capa_1" x="0px" y="0px" width="512px" height="512px" viewBox="0 0 84.723 84.723" style="enable-background:new 0 0 84.723 84.723;" xml:space="preserve" class=""><g><g>
	<g id="Image">
		<g>
			<path d="M71.168,11.553H13.553C6.08,11.553,0,17.374,0,24.528v35.673C0,67.354,6.08,73.17,13.554,73.17h57.614     c7.475,0,13.555-5.812,13.555-12.969V24.528C84.723,17.374,78.641,11.553,71.168,11.553z M75.686,50.511L63.305,34.726     c-0.848-1.076-2.166-1.716-3.572-1.73c-1.476-0.007-2.733,0.602-3.604,1.662L42.654,51.16l-4.527-3.121     c-1.02-0.699-2.307-0.963-3.535-0.729c-1.232,0.24-2.311,0.964-2.964,1.992l-9.684,15.217h-8.392     c-2.489,0-4.517-1.934-4.517-4.315V24.528c0-2.385,2.025-4.325,4.517-4.325h57.614c2.488,0,4.518,1.94,4.518,4.325L75.686,50.511     L75.686,50.511z M24.482,27.287c-4.055,0-7.342,3.145-7.342,7.025c0,3.88,3.287,7.025,7.342,7.025     c4.058,0,7.345-3.145,7.345-7.025C31.826,30.432,28.539,27.287,24.482,27.287z" data-original="#000000" class="active-path" data-old_color="#BORDER" fill="#637381"/>
		</g>
	</g>
</g></g> </svg>
