<svg xmlns="http://www.w3.org/2000/svg" width="24" height="24" viewBox="0 0 24 24">
    <g fill="#0459E4" fill-rule="evenodd">
        <path d="M13 11.5h10.45a.499.499 0 0 0 .498-.543A11.958 11.958 0 0 0 13.043.053a.5.5 0 0 0-.543.498V11a.5.5 0 0 0 .5.5M23.45 12.5h-9.036a.5.5 0 0 0-.354.854l6.391 6.39a.498.498 0 0 0 .354.147h.021a.504.504 0 0 0 .362-.178 11.906 11.906 0 0 0 2.76-6.67.501.501 0 0 0-.499-.543"/>
        <path d="M11.647 12.354A.504.504 0 0 1 11.5 12V.55a.504.504 0 0 0-.162-.369.487.487 0 0 0-.381-.129C4.813.583 0 5.833 0 12c0 6.618 5.383 12 12 12 2.815 0 5.554-.997 7.713-2.81a.497.497 0 0 0 .032-.736l-8.098-8.1z"/>
    </g>
</svg>
