<svg id="Capa_1" data-name="Capa 1" xmlns="http://www.w3.org/2000/svg" viewBox="0 0 28.8 27.04"><defs><style>.cls-1{fill:#bcbcbc;}</style></defs><title>pitch</title><path class="cls-1" d="M28,20.16H26.18V1.69H28A.85.85,0,1,0,28,0H.85a.85.85,0,1,0,0,1.69H2.62V20.16H.85a.84.84,0,1,0,0,1.68H28a.84.84,0,1,0,0-1.68ZM4.31,1.69H24.49V20.16H4.31Z"/><path class="cls-1" d="M16.71,25.36H15.12a.86.86,0,0,0,0-.28v-1a.85.85,0,0,0-1.69,0v1a.87.87,0,0,0,0,.28H11.77a.84.84,0,1,0,0,1.68h4.94a.84.84,0,1,0,0-1.68Z"/><path class="cls-1" d="M21.32,8.86a.83.83,0,0,0-1.17-.25L14.6,12.19l-1-2.77A.84.84,0,0,0,12.3,9L6.54,12.76A.85.85,0,0,0,7,14.32a.78.78,0,0,0,.46-.14L12.34,11l1,2.77a.84.84,0,0,0,1.25.41L21.07,10A.85.85,0,0,0,21.32,8.86Z"/></svg>
