<svg id="Capa_1" data-name="Capa 1" xmlns="http://www.w3.org/2000/svg" viewBox="0 0 28.8 27"><defs><style>.cls-1{fill:#0459e4;}</style></defs><title>pitch-active</title><path class="cls-1" d="M28,20.1h-1.8V1.7H28a.79.79,0,0,0,.8-.8A.86.86,0,0,0,28,.1H.85a.79.79,0,0,0-.8.8.86.86,0,0,0,.8.8h1.8V20.2H.85a.79.79,0,0,0-.8.8.86.86,0,0,0,.8.8H28a.79.79,0,0,0,.8-.8A.82.82,0,0,0,28,20.1ZM4.25,1.7h20.2V20.2H4.25Z"/><path class="cls-1" d="M16.65,25.3h-1.6V24a.8.8,0,0,0-1.6,0v1.3h-1.8a.79.79,0,0,0-.8.8.86.86,0,0,0,.8.8h4.9a.79.79,0,0,0,.8-.8A.71.71,0,0,0,16.65,25.3Z"/><path class="cls-1" d="M21.35,8.8a1,1,0,0,0-1.2-.3l-5.6,3.6-1-2.8a1.21,1.21,0,0,0-.5-.5.88.88,0,0,0-.7.1l-5.8,3.8a.83.83,0,0,0-.2,1.2,1,1,0,0,0,.7.4.9.9,0,0,0,.5-.1l4.9-3.2,1,2.8a1.21,1.21,0,0,0,.5.5.88.88,0,0,0,.7-.1l6.4-4.2A.93.93,0,0,0,21.35,8.8Z"/></svg>
