<?xml version="1.0"?>
<svg xmlns="http://www.w3.org/2000/svg" xmlns:xlink="http://www.w3.org/1999/xlink" version="1.1" viewBox="0 0 192 192" width="48px" height="48px"><g fill="none" fill-rule="nonzero" stroke="none" stroke-width="1" stroke-linecap="butt" stroke-linejoin="miter" stroke-miterlimit="10" stroke-dasharray="" stroke-dashoffset="0" font-family="none" font-weight="none" font-size="none" text-anchor="none" style="mix-blend-mode: normal"><path d="M0,192v-192h192v192z" fill="none"/><g fill="#10a36d"><path d="M96,16c-44.184,0 -80,35.816 -80,80c0,44.184 35.816,80 80,80c44.184,0 80,-35.816 80,-80c0,-44.184 -35.816,-80 -80,-80zM128,104h-24v24c0,4.416 -3.584,8 -8,8v0c-4.416,0 -8,-3.584 -8,-8v-24h-24c-4.416,0 -8,-3.584 -8,-8v0c0,-4.416 3.584,-8 8,-8h24v-24c0,-4.416 3.584,-8 8,-8v0c4.416,0 8,3.584 8,8v24h24c4.416,0 8,3.584 8,8v0c0,4.416 -3.584,8 -8,8z"/></g></g></svg>

