<?xml version="1.0" encoding="UTF-8"?>
<svg width="5px" height="8px" viewBox="0 0 5 8" version="1.1" xmlns="http://www.w3.org/2000/svg" xmlns:xlink="http://www.w3.org/1999/xlink">
    <!-- Generator: sketchtool 52.5 (67469) - http://www.bohemiancoding.com/sketch -->
    <title>97F3932F-7398-4720-983A-AE1E712FD1D0</title>
    <desc>Created with sketchtool.</desc>
    <g id="Surveys" stroke="none" stroke-width="1" fill="none" fill-rule="evenodd">
        <g id="Surveys-&gt;-Create-New-&gt;-7-Date" transform="translate(-922.000000, -421.000000)" fill="#3359DB" fill-rule="nonzero">
            <g id="dropdown" transform="translate(847.000000, 398.000000)">
                <g id="expand" transform="translate(77.000000, 27.000000) rotate(90.000000) translate(-77.000000, -27.000000) translate(65.000000, 15.000000)">
                    <path d="M15.7086231,9.90518971 L15.7086231,9.90518971 C15.8716826,10.0759792 15.8716826,10.3447797 15.7086231,10.5155691 L12.5786281,13.793942 C12.2735241,14.1135094 11.7671279,14.1252344 11.4475604,13.8201304 C11.43863,13.8116042 11.4298981,13.8028724 11.4213719,13.793942 L8.29137695,10.5155691 C8.12831737,10.3447797 8.12831737,10.0759792 8.29137695,9.90518971 L8.29137695,9.90518971 C8.44501668,9.74426667 8.70002019,9.73836238 8.86094323,9.89200211 C8.86544028,9.89629562 8.86983732,9.90069266 8.87413084,9.90518971 L12,13.1792412 L15.1258692,9.90518971 C15.2795089,9.74426667 15.5345124,9.73836238 15.6954354,9.89200211 C15.6999325,9.89629562 15.7043295,9.90069266 15.7086231,9.90518971 Z" id="Path-3-Copy"></path>
                </g>
            </g>
        </g>
    </g>
</svg>