<?xml version="1.0" encoding="UTF-8"?>
<svg style="cursor:pointer;" width="16px" height="13px" viewBox="0 0 16 13" version="1.1" xmlns="http://www.w3.org/2000/svg" xmlns:xlink="http://www.w3.org/1999/xlink">
    <!-- Generator: sketchtool 52.5 (67469) - http://www.bohemiancoding.com/sketch -->
    <title>3FE81444-6437-4E04-98FB-BCA12212A126</title>
    <desc>Created with sketchtool.</desc>
    <g id="Surveys" stroke="none" stroke-width="1" fill="none" fill-rule="evenodd">
        <g id="Surveys-&gt;-Share-&gt;-1-Mail" transform="translate(-694.000000, -240.000000)" fill="#ffffff">
            <g id="Modal" transform="translate(402.000000, 103.000000)">
                <g id="Options" transform="translate(150.000000, 125.000000)">
                    <g id="Button-Copy" transform="translate(116.000000, 0.000000)">
                        <g id="Icon" transform="translate(26.000000, 12.000000)">
                            <path d="M6.422,7.49537313 C7.422,9.70149254 10.158,9.93238806 11.874,8.38402985 C12.926,7.43328358 13.938,6.41462687 14.936,5.41149254 C15.6028352,4.75341091 15.9271975,3.83809858 15.8184459,2.92133358 C15.7096944,2.00456859 15.1794919,1.18466748 14.376,0.690746269 C13.442,0.108656716 12.176,-0.164925373 11.124,0.271641791 C10.072,0.708208955 9.25,1.8238806 8.476,2.57089552 C7.8,3.23253731 8.852,4.26865672 9.538,3.59925373 C10.682,2.49134328 11.862,0.725671642 13.63,1.9558209 C13.9999395,2.1986527 14.252596,2.57661387 14.3302409,3.00334548 C14.4078857,3.43007709 14.3038845,3.86911651 14.042,4.22014925 C13.8453741,4.43580859 13.6356687,4.63990209 13.414,4.83134328 C12.636,5.5861194 11.864,6.34865672 11.078,7.09761194 C9.98,8.14925373 8.44,8.34328358 7.718,6.7619403 C7.318,5.90626866 6.034,6.64552239 6.422,7.49537313 Z" id="Path" style="cursor:pointer;"></path>
                            <path d="M9.496,5.51432836 C8.496,3.30820896 5.762,3.07731343 4.046,4.62567164 C3,5.57641791 1.982,6.59701493 0.984,7.59820896 C0.317690723,8.2563476 -0.00651695371,9.17127136 0.101814014,10.0877642 C0.210144982,11.0042571 0.739420395,11.8242307 1.542,12.3189552 C2.476,12.9010448 3.742,13.1746269 4.796,12.7380597 C5.85,12.3014925 6.67,11.1858209 7.442,10.4407463 C8.126,9.77716418 7.066,8.74880597 6.382,9.41044776 C5.238,10.5183582 4.056,12.2840299 2.29,11.0597015 C1.91783953,10.8171961 1.66357791,10.4380634 1.58583944,10.009719 C1.50810098,9.5813745 1.61359569,9.14079093 1.878,8.78955224 C2.07411101,8.57342439 2.28384675,8.36930141 2.506,8.17835821 C3.284,7.42358209 4.056,6.66104478 4.84,5.91402985 C5.94,4.86626866 7.48,4.66641791 8.202,6.24970149 C8.602,7.10343284 9.884,6.3641791 9.496,5.51432836 Z" id="Path" style="cursor:pointer;"></path>
                        </g>
                    </g>
                </g>
            </g>
        </g>
    </g>
</svg>