<svg width="19px" height="19px" viewBox="0 0 19 19" version="1.1" xmlns="http://www.w3.org/2000/svg" xmlns:xlink="http://www.w3.org/1999/xlink">
  <!-- Generator: sketchtool 52.5 (67469) - http://www.bohemiancoding.com/sketch -->
  <title>07A0E4C3-543A-44D0-9E72-EE00EDA0A8C1</title>
  <desc>Created with sketchtool.</desc>
  <g id="Surveys" stroke="none" stroke-width="1" fill="none" fill-rule="evenodd" stroke-linecap="round" stroke-linejoin="round">
    <g id="Surveys-&gt;-Create-New" transform="translate(-575.000000, -248.000000)" stroke="#E4E4E4">
      <g id="Title" transform="translate(207.000000, 238.000000)">
        <g id="Edit" transform="translate(369.000000, 11.000000)">
          <path d="M5.22727273,14.6363636 L16.2683182,3.72286364 C16.5516364,3.4385 16.7272727,3.04645455 16.7272727,2.61363636 C16.7272727,2.18081818 16.5516364,1.78877273 16.2683182,1.50440909 L15.2228636,0.458954545 C14.9385,0.175636364 14.5464545,8.8817842e-15 14.1136364,8.8817842e-15 C13.6808182,8.8817842e-15 13.2887727,0.175636364 13.0044091,0.458954545 L2.09090909,11.5 L-3.32178729e-13,16.7272727 L5.22727273,14.6363636 Z" id="Stroke-1749"></path>
          <path d="M12.0227273,1.56818182 L15.1590909,4.70454545" id="Stroke-1751"></path>
          <polyline id="Stroke-1753" points="2.09090909 11.5 3.65909091 11.5 4.18181818 12.5454545 5.22727273 13.0681818 5.75 14.1136364"></polyline>
       </g>
      </g>
    </g>
  </g>
</svg>
