<svg xmlns="http://www.w3.org/2000/svg" x="0px" y="0px"
    width="24" height="24"
    viewBox="0 0 192 192"
    style=" fill:#000000;">
    <g transform="translate(4.704,4.704) scale(0.951,0.951)">
        <g fill="none" fill-rule="nonzero" stroke="none" stroke-width="none" stroke-linecap="butt" stroke-linejoin="none" stroke-miterlimit="10" stroke-dasharray="" stroke-dashoffset="0" font-family="none" font-weight="none" font-size="none" text-anchor="none" style="mix-blend-mode: normal">
        <g fill="#ffffff" stroke="#949292" stroke-width="10" stroke-linejoin="round">
            <path d="M104,16v16h48l24,24l-24,24h-48v16h64v48h-64v32h-16v-32h-48l-24,-24l24,-24h48v-16h-64v-48h64v-16z">
            </path>
        </g>
        <path d="M0,192v-192h192v192z" fill="none" stroke="none" stroke-width="1" stroke-linejoin="miter"></path>
        <g fill="#ffffff" stroke="none" stroke-width="1" stroke-linejoin="miter">
            <path d="M88,16v16h-64v48h64v16h-48l-24,24l24,24h48v32h16v-32h64v-48h-64v-16h48l24,-24l-24,-24h-48v-16z"></path>
        </g>
        <path d="" fill="none" stroke="none" stroke-width="1" stroke-linejoin="miter"></path>
        </g>
    </g>
</svg> 
