<?xml version="1.0" encoding="UTF-8"?>
<svg width="16px" height="14px" viewBox="0 0 16 14" version="1.1" xmlns="http://www.w3.org/2000/svg" xmlns:xlink="http://www.w3.org/1999/xlink">
    <!-- Generator: sketchtool 50.2 (55047) - http://www.bohemiancoding.com/sketch -->
    <title>FC3B79F4-C93D-4218-8510-1BB906CE8A55</title>
    <desc>Created with sketchtool.</desc>
    <defs></defs>
    <g id="--Learners-Section" stroke="none" stroke-width="1" fill="none" fill-rule="evenodd">
        <g id="Learner's-Submission-Modal" transform="translate(-641.000000, -458.000000)" fill="#3359DB" stroke="#FFFFFF" stroke-width="0.3">
            <g id="Modal" transform="translate(448.000000, 204.000000)">
                <g id="drag-and-drop-area" transform="translate(50.000000, 218.000000)">
                    <g id="Group" transform="translate(144.000000, 37.000000)">
                        <path d="M11.0795312,10.3109828 C10.7609586,10.4129004 10.4205923,10.2340639 10.3199567,9.91356836 C10.2193211,9.59307281 10.3968756,9.25206554 10.7160892,9.15078895 C12.2769025,8.65786679 13.0685266,7.39255036 13.0685266,5.38945317 C13.0685266,3.08829512 11.2038834,1.21660111 8.91105828,1.21660111 C6.91821695,1.21660111 5.20228377,2.64216532 4.82986794,4.60616205 L4.70615666,5.25933198 L4.0690115,5.07729051 C3.86453534,5.01896032 3.65813621,4.98947472 3.45494203,4.98947472 C2.21782921,4.98947472 1.21147318,5.9996767 1.21147318,7.24063547 C1.21147318,8.48223523 2.21782921,9.4924372 3.45494203,9.4924372 L3.57865331,9.48346333 C3.91709661,9.47064351 4.19849171,9.723194 4.21579847,10.0584323 C4.23374622,10.3943117 3.97734978,10.6801937 3.64275242,10.6981415 L3.60236998,10.7013464 C3.55365466,10.7051924 3.50493934,10.7083973 3.45494203,10.7083973 C1.54991648,10.7083973 0,9.15271192 0,7.24063547 C0,5.32855902 1.54991648,3.77287362 3.45494203,3.77287362 C3.5651925,3.77287362 3.67544297,3.77864254 3.78569344,3.78953939 C4.47347689,1.56145432 6.54131418,0 8.91105828,0 C11.8717962,0 14.2799997,2.41781843 14.2799997,5.38945317 C14.2799997,7.94828964 13.1736491,9.65012102 11.0795312,10.3109828 L11.0795312,10.3109828 Z M6.75220025,5.91762984 C6.75412322,5.91570686 6.75476422,5.91250191 6.75668719,5.91057894 C6.87591153,5.79135459 7.03103138,5.73238341 7.18679222,5.73238341 C7.34191206,5.73238341 7.4976729,5.79135459 7.61625625,5.91057894 C7.61753824,5.91186092 7.61753824,5.91442488 7.61946121,5.91634786 L9.29180699,7.59446256 C9.52833271,7.83227025 9.52833271,8.21750591 9.29180699,8.45467261 C9.17322364,8.57325597 9.01810379,8.63286814 8.86298394,8.63286814 C8.7078641,8.63286814 8.55338524,8.57325597 8.43480189,8.45467261 L7.79381079,7.81111755 L7.79381079,11.6397574 C7.79381079,11.9756367 7.52267155,12.2480579 7.18743321,12.2480579 C6.85283585,12.2480579 6.58169662,11.9756367 6.58169662,11.6397574 L6.58169662,7.80855358 L5.93814155,8.45467261 C5.82019919,8.57325597 5.66507934,8.63286814 5.5099595,8.63286814 C5.35483965,8.63286814 5.19971981,8.57325597 5.08177744,8.45467261 C4.84461074,8.21750591 4.84461074,7.83227025 5.08177744,7.59446256 L6.75220025,5.91762984 L6.75220025,5.91762984 Z" id="upload-icon"></path>
                    </g>
                </g>
            </g>
        </g>
    </g>
</svg>