<svg xmlns="http://www.w3.org/2000/svg" width="50" height="50" viewBox="0 0 50 50">
    <g fill="#0459E4" fill-rule="evenodd">
        <path fill-opacity=".2" d="M25 0C11.215 0 0 11.215 0 25c0 13.783 11.215 24.998 25 24.998S50 38.783 50 25C50 11.215 38.785 0 25 0z"/>
        <path d="M36.667 34.27a2.391 2.391 0 0 1-2.382 2.395h-18.57a2.391 2.391 0 0 1-2.382-2.395v-.763a5.003 5.003 0 0 1 2.709-4.455c2.098-1.088 5.356-2.385 8.958-2.385 3.602 0 6.86 1.297 8.958 2.385a5.003 5.003 0 0 1 2.709 4.455v.764zM25 13.332a5.84 5.84 0 0 1 5.833 5.833A5.841 5.841 0 0 1 25 25a5.841 5.841 0 0 1-5.833-5.835A5.84 5.84 0 0 1 25 13.332z"/>
    </g>
</svg>
