<svg xmlns="http://www.w3.org/2000/svg" width="18" height="16" viewBox="0 0 18 16">
    <g fill="none" fill-rule="evenodd">
        <path d="M0 0h18v18H0z"/>
        <path fill="#3359DB" fill-rule="nonzero" d="M.75 15.75h3v-9h-3v9zm16.5-8.25c0-.825-.675-1.5-1.5-1.5h-4.732l.712-3.428.022-.24c0-.307-.127-.592-.33-.794L10.627.75 5.692 5.692c-.277.27-.442.646-.442 1.058v7.5c0 .825.675 1.5 1.5 1.5h6.75a1.49 1.49 0 0 0 1.38-.915l2.265-5.288c.067-.172.105-.352.105-.547V7.567l-.008-.007.008-.06z"/>
    </g>
</svg>
