<svg xmlns="http://www.w3.org/2000/svg" width="17" height="16" viewBox="0 0 17 16">
    <g fill="none" fill-rule="evenodd">
        <path d="M-2-1h18v18H-2V-1zm0 0h18v18H-2V-1zm.563.563h16.875v16.875H-1.439V-.438z"/>
        <path fill="#000" fill-rule="nonzero" d="M9.205 2.495h-3.54l1.77-1.77 1.77 1.77zM5.687 13.527h3.495l-1.747 1.748-1.747-1.748zm-2.89-2.422h4.59v1.192H.99v-.967l4.44-6.42H1.02v-1.2h6.225v.945l-4.447 6.45zm8.778-7.403L8.2 12.297h1.38l.69-1.837h3.832l.69 1.837h1.38l-3.367-8.595h-1.23zm-.848 5.528l1.455-3.885 1.455 3.885h-2.91z"/>
    </g>
</svg>
